<?xml version="1.0" encoding="UTF-8" standalone="no"?>
<!-- Created with Inkscape (http://www.inkscape.org/) -->

<svg
   xmlns:dc="http://purl.org/dc/elements/1.1/"
   xmlns:cc="http://creativecommons.org/ns#"
   xmlns:rdf="http://www.w3.org/1999/02/22-rdf-syntax-ns#"
   xmlns:svg="http://www.w3.org/2000/svg"
   xmlns="http://www.w3.org/2000/svg"
   xmlns:sodipodi="http://sodipodi.sourceforge.net/DTD/sodipodi-0.dtd"
   xmlns:inkscape="http://www.inkscape.org/namespaces/inkscape"
   width="8.4666662mm"
   height="8.8106937mm"
   viewBox="0 0 8.4666663 8.8106937"
   version="1.1"
   id="svg8"
   inkscape:export-filename="C:\pyladies\roboprojekt\img\interface\png\crown.png"
   inkscape:export-xdpi="96.000008"
   inkscape:export-ydpi="96.000008"
   inkscape:version="0.92.4 (5da689c313, 2019-01-14)"
   sodipodi:docname="no_crown.svg">
  <defs
     id="defs2" />
  <sodipodi:namedview
     id="base"
     pagecolor="#ffffff"
     bordercolor="#666666"
     borderopacity="1.0"
     inkscape:pageopacity="0.0"
     inkscape:pageshadow="2"
     inkscape:zoom="12.303959"
     inkscape:cx="9.9734063"
     inkscape:cy="13.441794"
     inkscape:document-units="mm"
     inkscape:current-layer="layer1"
     showgrid="true"
     inkscape:window-width="1366"
     inkscape:window-height="705"
     inkscape:window-x="-8"
     inkscape:window-y="-8"
     inkscape:window-maximized="1">
    <inkscape:grid
       type="xygrid"
       id="grid1554"
       empspacing="4"
       originx="-57.220394"
       originy="-187.32501" />
  </sodipodi:namedview>
  <metadata
     id="metadata5">
    <rdf:RDF>
      <cc:Work
         rdf:about="">
        <dc:format>image/svg+xml</dc:format>
        <dc:type
           rdf:resource="http://purl.org/dc/dcmitype/StillImage" />
        <dc:title></dc:title>
      </cc:Work>
    </rdf:RDF>
  </metadata>
  <g
     inkscape:label="Vrstva 1"
     inkscape:groupmode="layer"
     id="layer1"
     transform="translate(-57.220394,-100.86429)">
    <rect
       style="opacity:1;fill:#ffffff;fill-opacity:1;stroke:none;stroke-width:0.18944167;stroke-linecap:round;stroke-linejoin:miter;stroke-miterlimit:4;stroke-dasharray:none;stroke-dashoffset:21.1607151;stroke-opacity:1;paint-order:markers stroke fill"
       id="rect815"
       width="16.933332"
       height="16.933332"
       x="-227.54166"
       y="59.630951" />
    <rect
       style="opacity:1;fill:none;fill-opacity:1;stroke:none;stroke-width:0.29264656;stroke-linecap:round;stroke-linejoin:miter;stroke-miterlimit:4;stroke-dasharray:none;stroke-dashoffset:21.1607151;stroke-opacity:1;paint-order:markers stroke fill"
       id="rect1552"
       width="6.3499961"
       height="6.7348399"
       x="56.091675"
       y="104.13078" />
    <path
       style="fill:none;stroke:#000000;stroke-width:0.26458332px;stroke-linecap:butt;stroke-linejoin:miter;stroke-opacity:1"
       d="M 59.266667,108.61666 H 63.5 l 1.058333,-3.175 L 63.5,106.23541 v -1.85208 l -1.058333,1.85208 -1.058334,-2.64583 -1.058333,2.64583 -1.058333,-1.85208 v 1.85208 l -1.058334,-0.79375 z"
       id="path32"
       inkscape:connector-curvature="0"
       sodipodi:nodetypes="cccccccccccc"
       inkscape:export-filename="C:\pyladies\roboprojekt\img\interface\png\crown.png"
       inkscape:export-xdpi="152.63"
       inkscape:export-ydpi="152.63" />
    <circle
       style="fill:none;fill-opacity:1;stroke:#000000;stroke-width:0.2;stroke-miterlimit:4;stroke-dasharray:none;stroke-opacity:1"
       id="path34"
       cx="57.905346"
       cy="104.91249"
       r="0.26458332"
       inkscape:export-filename="C:\pyladies\roboprojekt\img\interface\png\crown.png"
       inkscape:export-xdpi="152.63"
       inkscape:export-ydpi="152.63" />
    <circle
       style="fill:none;fill-opacity:1;stroke:#000000;stroke-width:0.2;stroke-miterlimit:4;stroke-dasharray:none;stroke-opacity:1"
       id="path34-7"
       cx="59.027813"
       cy="103.7282"
       r="0.26458332"
       inkscape:export-filename="C:\pyladies\roboprojekt\img\interface\png\crown.png"
       inkscape:export-xdpi="152.63"
       inkscape:export-ydpi="152.63" />
    <circle
       style="fill:none;fill-opacity:1;stroke:#000000;stroke-width:0.2;stroke-miterlimit:4;stroke-dasharray:none;stroke-opacity:1"
       id="path34-9"
       cx="61.374882"
       cy="103.01546"
       r="0.26458332"
       inkscape:export-filename="C:\pyladies\roboprojekt\img\interface\png\crown.png"
       inkscape:export-xdpi="152.63"
       inkscape:export-ydpi="152.63" />
    <circle
       style="fill:none;fill-opacity:1;stroke:#000000;stroke-width:0.2;stroke-miterlimit:4;stroke-dasharray:none;stroke-opacity:1"
       id="path34-6"
       cx="63.687782"
       cy="103.71745"
       r="0.26458332"
       inkscape:export-filename="C:\pyladies\roboprojekt\img\interface\png\crown.png"
       inkscape:export-xdpi="152.63"
       inkscape:export-ydpi="152.63" />
    <circle
       style="fill:none;fill-opacity:1;stroke:#000000;stroke-width:0.2;stroke-miterlimit:4;stroke-dasharray:none;stroke-opacity:1"
       id="path34-70"
       cx="64.83136"
       cy="104.92708"
       r="0.26458332"
       inkscape:export-filename="C:\pyladies\roboprojekt\img\interface\png\crown.png"
       inkscape:export-xdpi="152.63"
       inkscape:export-ydpi="152.63" />
    <path
       style="fill:#ffcc00;fill-opacity:1;stroke:#000000;stroke-width:0.05485526;stroke-miterlimit:4;stroke-dasharray:none;stroke-opacity:1"
       d="M 6.4655215,23.795966 C 5.5585441,21.074376 4.8244081,18.839685 4.834108,18.829985 c 0.0097,-0.0097 0.7759502,0.551598 1.7027785,1.247328 0.9268282,0.695731 1.7019338,1.264965 1.7224568,1.264965 0.020523,0 0.037315,-1.346351 0.037315,-2.991892 v -2.991891 l 1.7336697,3.032286 c 0.953518,1.667757 1.749734,3.048349 1.769368,3.067984 0.01963,0.01963 0.911055,-2.153169 1.980935,-4.82845 1.06988,-2.675282 1.952412,-4.856657 1.961182,-4.847501 0.0088,0.0092 0.871131,2.155618 1.91636,4.769914 1.045227,2.614296 1.925563,4.798464 1.9563,4.853707 0.03735,0.06713 0.630813,-0.907522 1.789209,-2.938428 l 1.733324,-3.038871 0.01896,2.956571 c 0.01043,1.626114 0.03538,2.956571 0.05546,2.956571 0.02008,0 0.794815,-0.569234 1.721643,-1.264965 0.926829,-0.69573 1.693079,-1.257028 1.702779,-1.247328 0.0097,0.0097 -0.724436,2.244391 -1.631414,4.965981 L 23.355378,28.74431 H 15.734974 8.1145712 Z"
       id="path874"
       inkscape:connector-curvature="0"
       transform="matrix(0.26458333,0,0,0.26458333,57.220394,100.86429)"
       inkscape:export-filename="C:\pyladies\roboprojekt\img\interface\png\crown.png"
       inkscape:export-xdpi="152.63"
       inkscape:export-ydpi="152.63" />
    <path
       style="fill:#ffcc00;fill-opacity:1;stroke:#000000;stroke-width:0.05485526;stroke-miterlimit:4;stroke-dasharray:none;stroke-opacity:1"
       d="M 2.1952849,15.687483 C 2.0022878,15.494486 1.9732718,15.421667 2.0111737,15.225437 c 0.1321709,-0.684292 1.1330896,-0.620589 1.1330896,0.07211 0,0.288857 -0.1938992,0.517443 -0.4869329,0.574043 -0.19623,0.0379 -0.2690485,0.0089 -0.4620455,-0.184111 z"
       id="path876"
       inkscape:connector-curvature="0"
       transform="matrix(0.26458333,0,0,0.26458333,57.220394,100.86429)"
       inkscape:export-filename="C:\pyladies\roboprojekt\img\interface\png\crown.png"
       inkscape:export-xdpi="152.63"
       inkscape:export-ydpi="152.63" />
    <path
       style="fill:#ffcc00;fill-opacity:1;stroke:#000000;stroke-width:0.05485526;stroke-miterlimit:4;stroke-dasharray:none;stroke-opacity:1"
       d="m 6.4428515,11.222209 c -0.2356565,-0.235656 -0.2356565,-0.569199 0,-0.804855 0.4078371,-0.407837 1.0715025,-0.02068 0.9457798,0.551731 -0.094736,0.431328 -0.6255194,0.573384 -0.9457798,0.253124 z"
       id="path880"
       inkscape:connector-curvature="0"
       transform="matrix(0.26458333,0,0,0.26458333,57.220394,100.86429)"
       inkscape:export-filename="C:\pyladies\roboprojekt\img\interface\png\crown.png"
       inkscape:export-xdpi="152.63"
       inkscape:export-ydpi="152.63" />
    <path
       style="fill:#ffcc00;fill-opacity:1;stroke:#000000;stroke-width:0.05485526;stroke-miterlimit:4;stroke-dasharray:none;stroke-opacity:1"
       d="M 15.296262,8.5371584 C 14.936306,8.1772025 15.19137,7.5541791 15.69869,7.5541791 c 0.298338,0 0.580552,0.2822135 0.580552,0.5805515 0,0.298338 -0.282214,0.5805515 -0.580552,0.5805515 -0.141391,0 -0.290146,-0.065842 -0.402428,-0.1781237 z"
       id="path882"
       inkscape:connector-curvature="0"
       transform="matrix(0.26458333,0,0,0.26458333,57.220394,100.86429)"
       inkscape:export-filename="C:\pyladies\roboprojekt\img\interface\png\crown.png"
       inkscape:export-xdpi="152.63"
       inkscape:export-ydpi="152.63" />
    <path
       style="fill:#ffcc00;fill-opacity:1;stroke:#000000;stroke-width:0.05485526;stroke-miterlimit:4;stroke-dasharray:none;stroke-opacity:1"
       d="m 24.181132,11.291505 c -0.284687,-0.154724 -0.39436,-0.474845 -0.255007,-0.744326 0.234703,-0.453864 0.800645,-0.451731 1.036265,0.0039 0.140165,0.27105 0.02315,0.591306 -0.271769,0.743816 -0.246265,0.127348 -0.269205,0.127195 -0.509489,-0.0034 z"
       id="path884"
       inkscape:connector-curvature="0"
       transform="matrix(0.26458333,0,0,0.26458333,57.220394,100.86429)"
       inkscape:export-filename="C:\pyladies\roboprojekt\img\interface\png\crown.png"
       inkscape:export-xdpi="152.63"
       inkscape:export-ydpi="152.63" />
    <path
       style="fill:#ffcc00;fill-opacity:1;stroke:#000000;stroke-width:0.05485526;stroke-miterlimit:4;stroke-dasharray:none;stroke-opacity:1"
       d="m 28.63555,15.916125 c -0.203682,-0.03302 -0.455002,-0.345937 -0.455002,-0.566525 0,-0.26523 0.301155,-0.562717 0.569657,-0.562717 0.505203,0 0.786919,0.621197 0.428166,0.944123 -0.195138,0.17565 -0.325978,0.22027 -0.542821,0.185119 z"
       id="path886"
       inkscape:connector-curvature="0"
       transform="matrix(0.26458333,0,0,0.26458333,57.220394,100.86429)"
       inkscape:export-filename="C:\pyladies\roboprojekt\img\interface\png\crown.png"
       inkscape:export-xdpi="152.63"
       inkscape:export-ydpi="152.63" />
    <path
       style="fill:none;stroke:#ff0000;stroke-width:0.25998145px;stroke-linecap:butt;stroke-linejoin:miter;stroke-opacity:1"
       d="m 57.94375,101.73749 c 7.408333,7.40834 7.408333,7.40834 7.408333,7.40834 v 0 0"
       id="path907"
       inkscape:connector-curvature="0" />
    <path
       style="fill:none;stroke:#ff0000;stroke-width:0.26458332px;stroke-linecap:butt;stroke-linejoin:miter;stroke-opacity:1"
       d="m 64.822916,101.73749 c -7.408333,7.40834 -7.408333,7.40834 -7.408333,7.40834"
       id="path909"
       inkscape:connector-curvature="0" />
  </g>
</svg>
