<?xml version="1.0" encoding="UTF-8" standalone="no"?>
<!-- Created with Inkscape (http://www.inkscape.org/) -->

<svg
   xmlns:dc="http://purl.org/dc/elements/1.1/"
   xmlns:cc="http://creativecommons.org/ns#"
   xmlns:rdf="http://www.w3.org/1999/02/22-rdf-syntax-ns#"
   xmlns:svg="http://www.w3.org/2000/svg"
   xmlns="http://www.w3.org/2000/svg"
   xmlns:sodipodi="http://sodipodi.sourceforge.net/DTD/sodipodi-0.dtd"
   xmlns:inkscape="http://www.inkscape.org/namespaces/inkscape"
   width="64"
   height="64"
   viewBox="0 0 16.933333 16.933334"
   version="1.1"
   id="svg8"
   inkscape:version="0.92.4 5da689c313, 2019-01-14"
   sodipodi:docname="belt_crossroad_90.svg"
   inkscape:export-filename="/home/terezievahalova/dev/roboprojekt/img/tiles/png/belt_crossroad_-90.png"
   inkscape:export-xdpi="96.000008"
   inkscape:export-ydpi="96.000008">
  <defs
     id="defs2" />
  <sodipodi:namedview
     id="base"
     pagecolor="#ffffff"
     bordercolor="#666666"
     borderopacity="1.0"
     inkscape:pageopacity="0.0"
     inkscape:pageshadow="2"
     inkscape:zoom="11.313709"
     inkscape:cx="35.154847"
     inkscape:cy="25.611117"
     inkscape:document-units="px"
     inkscape:current-layer="layer1"
     showgrid="true"
     units="px"
     inkscape:window-width="1920"
     inkscape:window-height="1016"
     inkscape:window-x="0"
     inkscape:window-y="27"
     inkscape:window-maximized="1">
    <inkscape:grid
       type="xygrid"
       id="grid4506"
       empspacing="8"
       originx="8.2266988e-07"
       originy="-2.8732868e-05" />
  </sodipodi:namedview>
  <metadata
     id="metadata5">
    <rdf:RDF>
      <cc:Work
         rdf:about="">
        <dc:format>image/svg+xml</dc:format>
        <dc:type
           rdf:resource="http://purl.org/dc/dcmitype/StillImage" />
        <dc:title></dc:title>
      </cc:Work>
    </rdf:RDF>
  </metadata>
  <g
     inkscape:label="Vrstva 1"
     inkscape:groupmode="layer"
     id="layer1"
     transform="translate(8.226699e-7,-280.06662)">
    <rect
       y="293.03119"
       x="-14.820205"
       height="0.5291667"
       width="2.1166668"
       id="rect845-6"
       style="opacity:1;fill:#c8ab37;fill-opacity:1;stroke:#786721;stroke-width:0.13229167;stroke-miterlimit:4;stroke-dasharray:none"
       transform="scale(-1,1)" />
    <rect
       style="opacity:1;fill:#c8ab37;fill-opacity:1;stroke:#786721;stroke-width:0.13229167;stroke-miterlimit:4;stroke-dasharray:none"
       id="rect847-0"
       width="2.1166668"
       height="0.5291667"
       x="-14.820205"
       y="293.03119"
       transform="scale(-1,1)" />
    <rect
       style="opacity:1;fill:#c8ab37;fill-opacity:1;stroke:#786721;stroke-width:0.13229167;stroke-miterlimit:4;stroke-dasharray:none"
       id="rect849-6"
       width="2.1166668"
       height="0.5291667"
       x="-14.820205"
       y="294.08954"
       transform="scale(-1,1)" />
    <rect
       y="294.08954"
       x="-4.2368698"
       height="0.5291667"
       width="2.1166668"
       id="rect889-6"
       style="opacity:1;fill:#c8ab37;fill-opacity:1;stroke:#786721;stroke-width:0.13229167;stroke-miterlimit:4;stroke-dasharray:none"
       transform="scale(-1,1)" />
    <rect
       style="opacity:1;fill:#c8ab37;fill-opacity:1;stroke:#786721;stroke-width:0.13229167;stroke-miterlimit:4;stroke-dasharray:none"
       id="rect885-7"
       width="2.1166668"
       height="0.5291667"
       x="-4.2368698"
       y="293.03119"
       transform="scale(-1,1)" />
    <rect
       style="opacity:1;fill:#c8ab37;fill-opacity:1;stroke:#786721;stroke-width:0.13229167;stroke-miterlimit:4;stroke-dasharray:none"
       id="rect817"
       width="2.1166668"
       height="0.5291667"
       x="282.24734"
       y="0.26635551"
       transform="matrix(0,1,1,0,0,0)" />
    <rect
       y="1.3247051"
       x="282.24734"
       height="0.5291667"
       width="2.1166668"
       id="rect819"
       style="opacity:1;fill:#c8ab37;fill-opacity:1;stroke:#786721;stroke-width:0.13229167;stroke-miterlimit:4;stroke-dasharray:none"
       transform="matrix(0,1,1,0,0,0)" />
    <rect
       style="opacity:1;fill:#c8ab37;fill-opacity:1;stroke:#786721;stroke-width:0.13229167;stroke-miterlimit:4;stroke-dasharray:none"
       id="rect821"
       width="2.1166668"
       height="0.5291667"
       x="282.24734"
       y="2.3830547"
       transform="matrix(0,1,1,0,0,0)" />
    <rect
       y="3.4414043"
       x="282.24734"
       height="0.5291667"
       width="2.1166668"
       id="rect823"
       style="opacity:1;fill:#c8ab37;fill-opacity:1;stroke:#786721;stroke-width:0.13229167;stroke-miterlimit:4;stroke-dasharray:none"
       transform="matrix(0,1,1,0,0,0)" />
    <rect
       style="opacity:1;fill:#c8ab37;fill-opacity:1;stroke:#786721;stroke-width:0.13229167;stroke-miterlimit:4;stroke-dasharray:none"
       id="rect825"
       width="2.1166668"
       height="0.5291667"
       x="282.24734"
       y="4.499754"
       transform="matrix(0,1,1,0,0,0)" />
    <rect
       y="5.5581036"
       x="282.24734"
       height="0.5291667"
       width="2.1166668"
       id="rect827"
       style="opacity:1;fill:#c8ab37;fill-opacity:1;stroke:#786721;stroke-width:0.13229167;stroke-miterlimit:4;stroke-dasharray:none"
       transform="matrix(0,1,1,0,0,0)" />
    <rect
       style="opacity:1;fill:#c8ab37;fill-opacity:1;stroke:#786721;stroke-width:0.13229167;stroke-miterlimit:4;stroke-dasharray:none"
       id="rect829"
       width="2.1166668"
       height="0.5291667"
       x="282.24734"
       y="5.5581036"
       transform="matrix(0,1,1,0,0,0)" />
    <rect
       y="6.6164532"
       x="282.24734"
       height="0.5291667"
       width="2.1166668"
       id="rect831"
       style="opacity:1;fill:#c8ab37;fill-opacity:1;stroke:#786721;stroke-width:0.13229167;stroke-miterlimit:4;stroke-dasharray:none"
       transform="matrix(0,1,1,0,0,0)" />
    <rect
       style="opacity:1;fill:#c8ab37;fill-opacity:1;stroke:#786721;stroke-width:0.13229167;stroke-miterlimit:4;stroke-dasharray:none"
       id="rect833"
       width="2.1166668"
       height="0.5291667"
       x="282.24734"
       y="7.6748028"
       transform="matrix(0,1,1,0,0,0)" />
    <rect
       y="8.7331524"
       x="282.24734"
       height="0.5291667"
       width="2.1166668"
       id="rect835"
       style="opacity:1;fill:#c8ab37;fill-opacity:1;stroke:#786721;stroke-width:0.13229167;stroke-miterlimit:4;stroke-dasharray:none"
       transform="matrix(0,1,1,0,0,0)" />
    <rect
       style="opacity:1;fill:#c8ab37;fill-opacity:1;stroke:#786721;stroke-width:0.13229167;stroke-miterlimit:4;stroke-dasharray:none"
       id="rect837"
       width="2.1166668"
       height="0.5291667"
       x="282.24734"
       y="9.791502"
       transform="matrix(0,1,1,0,0,0)" />
    <rect
       y="9.791502"
       x="282.24734"
       height="0.5291667"
       width="2.1166668"
       id="rect839"
       style="opacity:1;fill:#c8ab37;fill-opacity:1;stroke:#786721;stroke-width:0.13229167;stroke-miterlimit:4;stroke-dasharray:none"
       transform="matrix(0,1,1,0,0,0)" />
    <rect
       y="10.849852"
       x="282.24734"
       height="0.5291667"
       width="2.1166668"
       id="rect841"
       style="opacity:1;fill:#c8ab37;fill-opacity:1;stroke:#786721;stroke-width:0.13229167;stroke-miterlimit:4;stroke-dasharray:none"
       transform="matrix(0,1,1,0,0,0)" />
    <rect
       style="opacity:1;fill:#c8ab37;fill-opacity:1;stroke:#786721;stroke-width:0.13229167;stroke-miterlimit:4;stroke-dasharray:none"
       id="rect843"
       width="2.1166668"
       height="0.5291667"
       x="282.24734"
       y="11.908201"
       transform="matrix(0,1,1,0,0,0)" />
    <rect
       y="12.966551"
       x="282.24734"
       height="0.5291667"
       width="2.1166668"
       id="rect845"
       style="opacity:1;fill:#c8ab37;fill-opacity:1;stroke:#786721;stroke-width:0.13229167;stroke-miterlimit:4;stroke-dasharray:none"
       transform="matrix(0,1,1,0,0,0)" />
    <rect
       style="opacity:1;fill:#c8ab37;fill-opacity:1;stroke:#786721;stroke-width:0.13229167;stroke-miterlimit:4;stroke-dasharray:none"
       id="rect847"
       width="2.1166668"
       height="0.5291667"
       x="282.24734"
       y="12.966551"
       transform="matrix(0,1,1,0,0,0)" />
    <rect
       style="opacity:1;fill:#c8ab37;fill-opacity:1;stroke:#786721;stroke-width:0.13229167;stroke-miterlimit:4;stroke-dasharray:none"
       id="rect849"
       width="2.1166668"
       height="0.5291667"
       x="282.24734"
       y="14.0249"
       transform="matrix(0,1,1,0,0,0)" />
    <rect
       y="15.08325"
       x="282.24734"
       height="0.5291667"
       width="2.1166668"
       id="rect851"
       style="opacity:1;fill:#c8ab37;fill-opacity:1;stroke:#786721;stroke-width:0.13229167;stroke-miterlimit:4;stroke-dasharray:none"
       transform="matrix(0,1,1,0,0,0)" />
    <rect
       style="opacity:1;fill:#c8ab37;fill-opacity:1;stroke:#786721;stroke-width:0.13229167;stroke-miterlimit:4;stroke-dasharray:none"
       id="rect853"
       width="2.1166668"
       height="0.5291667"
       x="282.24734"
       y="16.1416"
       transform="matrix(0,1,1,0,0,0)" />
    <rect
       y="16.1416"
       x="282.24734"
       height="0.5291667"
       width="2.1166668"
       id="rect855"
       style="opacity:1;fill:#c8ab37;fill-opacity:1;stroke:#786721;stroke-width:0.13229167;stroke-miterlimit:4;stroke-dasharray:none"
       transform="matrix(0,1,1,0,0,0)" />
    <rect
       y="0.26635551"
       x="292.83069"
       height="0.5291667"
       width="2.1166668"
       id="rect857"
       style="opacity:1;fill:#c8ab37;fill-opacity:1;stroke:#786721;stroke-width:0.13229167;stroke-miterlimit:4;stroke-dasharray:none"
       transform="matrix(0,1,1,0,0,0)" />
    <rect
       style="opacity:1;fill:#c8ab37;fill-opacity:1;stroke:#786721;stroke-width:0.13229167;stroke-miterlimit:4;stroke-dasharray:none"
       id="rect859"
       width="2.1166668"
       height="0.5291667"
       x="292.83069"
       y="1.3247051"
       transform="matrix(0,1,1,0,0,0)" />
    <rect
       style="opacity:1;fill:#c8ab37;fill-opacity:1;stroke:#786721;stroke-width:0.13229167;stroke-miterlimit:4;stroke-dasharray:none"
       id="rect891"
       width="2.1166668"
       height="0.5291667"
       x="292.83069"
       y="15.08325"
       transform="matrix(0,1,1,0,0,0)" />
    <rect
       y="16.1416"
       x="292.83069"
       height="0.5291667"
       width="2.1166668"
       id="rect893"
       style="opacity:1;fill:#c8ab37;fill-opacity:1;stroke:#786721;stroke-width:0.13229167;stroke-miterlimit:4;stroke-dasharray:none"
       transform="matrix(0,1,1,0,0,0)" />
    <rect
       style="opacity:1;fill:#c8ab37;fill-opacity:1;stroke:#786721;stroke-width:0.13229167;stroke-miterlimit:4;stroke-dasharray:none"
       id="rect895"
       width="2.1166668"
       height="0.5291667"
       x="292.83069"
       y="16.1416"
       transform="matrix(0,1,1,0,0,0)" />
    <path
       style="opacity:1;fill:#483737;fill-opacity:1;stroke:none;stroke-width:1.13770843;stroke-linecap:round;stroke-linejoin:miter;stroke-miterlimit:11.80000019;stroke-dasharray:1.13770836, 4.55083344999999984;stroke-dashoffset:0;stroke-opacity:1;paint-order:markers stroke fill"
       id="path1058"
       cy="292.76666"
       rx="8.4666672"
       ry="8.4666615" />
    <rect
       y="295.14789"
       x="-14.820205"
       height="0.5291667"
       width="2.1166668"
       id="rect851-2"
       style="opacity:1;fill:#c8ab37;fill-opacity:1;stroke:#786721;stroke-width:0.13229167;stroke-miterlimit:4;stroke-dasharray:none"
       transform="scale(-1,1)" />
    <rect
       style="opacity:1;fill:#c8ab37;fill-opacity:1;stroke:#786721;stroke-width:0.13229167;stroke-miterlimit:4;stroke-dasharray:none"
       id="rect853-6"
       width="2.1166668"
       height="0.5291667"
       x="-14.820205"
       y="296.20624"
       transform="scale(-1,1)" />
    <rect
       y="296.20624"
       x="-14.820205"
       height="0.5291667"
       width="2.1166668"
       id="rect855-1"
       style="opacity:1;fill:#c8ab37;fill-opacity:1;stroke:#786721;stroke-width:0.13229167;stroke-miterlimit:4;stroke-dasharray:none"
       transform="scale(-1,1)" />
    <rect
       style="opacity:1;fill:#c8ab37;fill-opacity:1;stroke:#786721;stroke-width:0.13229167;stroke-miterlimit:4;stroke-dasharray:none"
       id="rect891-1"
       width="2.1166668"
       height="0.5291667"
       x="-4.2368698"
       y="295.14789"
       transform="scale(-1,1)" />
    <rect
       y="296.20624"
       x="-4.2368698"
       height="0.5291667"
       width="2.1166668"
       id="rect893-2"
       style="opacity:1;fill:#c8ab37;fill-opacity:1;stroke:#786721;stroke-width:0.13229167;stroke-miterlimit:4;stroke-dasharray:none"
       transform="scale(-1,1)" />
    <rect
       style="opacity:1;fill:#c8ab37;fill-opacity:1;stroke:#786721;stroke-width:0.13229167;stroke-miterlimit:4;stroke-dasharray:none"
       id="rect895-9"
       width="2.1166668"
       height="0.5291667"
       x="-4.2368698"
       y="296.20624"
       transform="scale(-1,1)" />
    <rect
       style="fill:#1f241c;fill-opacity:1;stroke-width:0.13228798"
       id="rect4518-3-3"
       width="8.4666672"
       height="4.2330976"
       x="-12.703537"
       y="292.76666"
       transform="scale(-1,1)" />
    <rect
       style="fill:#1f241c;fill-opacity:1;stroke-width:0.26458335"
       id="rect4518-3"
       width="8.4666672"
       height="16.933334"
       x="284.36401"
       y="-16.935102"
       transform="rotate(90)"
       inkscape:export-filename="/home/terezievahalova/dev/roboprojekt/img/tiles/png/rect4518-3.png"
       inkscape:export-xdpi="96"
       inkscape:export-ydpi="96" />
    <path
       style="opacity:1;fill:#c8ab37;fill-opacity:1;stroke:#ffeeaa;stroke-width:0.93313676;stroke-miterlimit:4;stroke-dasharray:none;stroke-opacity:1"
       d="m 45,21 v 6 l -29.999997,1.08e-4 0,10 L 27,37 l 3e-6,14.000108 h 10 L 37,37 h 8 v 6 L 56,32 Z"
       transform="matrix(0.26458334,0,0,0.26458334,-8.226699e-7,280.06662)"
       id="path1191"
       inkscape:connector-curvature="0"
       sodipodi:nodetypes="cccccccccccc" />
  </g>
</svg>
