<?xml version="1.0" encoding="UTF-8" standalone="no"?>
<!-- Created with Inkscape (http://www.inkscape.org/) -->

<svg
   xmlns:dc="http://purl.org/dc/elements/1.1/"
   xmlns:cc="http://creativecommons.org/ns#"
   xmlns:rdf="http://www.w3.org/1999/02/22-rdf-syntax-ns#"
   xmlns:svg="http://www.w3.org/2000/svg"
   xmlns="http://www.w3.org/2000/svg"
   xmlns:sodipodi="http://sodipodi.sourceforge.net/DTD/sodipodi-0.dtd"
   xmlns:inkscape="http://www.inkscape.org/namespaces/inkscape"
   width="64"
   height="64"
   viewBox="0 0 16.933333 16.933334"
   version="1.1"
   id="svg8"
   inkscape:version="0.92.3 (2405546, 2018-03-11)"
   sodipodi:docname="conveyor_belt_1_cross_T.svg"
   inkscape:export-filename="/home/terezievahalova/dev/roboprojekt_muj/plochy/png/conveyor_belt_2.png"
   inkscape:export-xdpi="96.000008"
   inkscape:export-ydpi="96.000008">
  <defs
     id="defs2" />
  <sodipodi:namedview
     id="base"
     pagecolor="#ffffff"
     bordercolor="#666666"
     borderopacity="1.0"
     inkscape:pageopacity="0.0"
     inkscape:pageshadow="2"
     inkscape:zoom="8"
     inkscape:cx="37.184157"
     inkscape:cy="33.445667"
     inkscape:document-units="px"
     inkscape:current-layer="layer1"
     showgrid="true"
     units="px"
     inkscape:window-width="1920"
     inkscape:window-height="1016"
     inkscape:window-x="0"
     inkscape:window-y="27"
     inkscape:window-maximized="1">
    <inkscape:grid
       type="xygrid"
       id="grid4506"
       empspacing="8"
       originx="8.2266988e-07"
       originy="-2.8732868e-05" />
  </sodipodi:namedview>
  <metadata
     id="metadata5">
    <rdf:RDF>
      <cc:Work
         rdf:about="">
        <dc:format>image/svg+xml</dc:format>
        <dc:type
           rdf:resource="http://purl.org/dc/dcmitype/StillImage" />
        <dc:title></dc:title>
      </cc:Work>
    </rdf:RDF>
  </metadata>
  <g
     inkscape:label="Vrstva 1"
     inkscape:groupmode="layer"
     id="layer1"
     transform="translate(8.226699e-7,-280.06662)">
    <path
       id="ellipse1060"
       style="opacity:1;fill:#00ff00;fill-opacity:1;stroke:none;stroke-width:1.41931367;stroke-linecap:round;stroke-linejoin:miter;stroke-miterlimit:11.80000019;stroke-dasharray:1.41931355, 5.67725425;stroke-dashoffset:0;stroke-opacity:1;paint-order:markers stroke fill"
       sodipodi:type="arc"
       sodipodi:cx="-4.2986994"
       sodipodi:cy="292.76666"
       sodipodi:rx="10.541355"
       sodipodi:ry="10.583347"
       sodipodi:start="3.1384286"
       sodipodi:end="4.7163713"
       d="m -14.840002,292.80015 a 10.541355,10.583347 0 0 1 3.090489,-7.52011 10.541355,10.583347 0 0 1 7.4927926,-3.09664 l -0.041979,10.58326 z"
       transform="scale(-1,1)" />
    <path
       style="opacity:1;fill:#483737;fill-opacity:1;stroke:none;stroke-width:1.13770843;stroke-linecap:round;stroke-linejoin:miter;stroke-miterlimit:11.80000019;stroke-dasharray:1.13770836, 4.55083344999999984;stroke-dashoffset:0;stroke-opacity:1;paint-order:markers stroke fill"
       id="path1058"
       cy="292.76666"
       rx="8.4666672"
       ry="8.4666615" />
    <rect
       y="292.76666"
       x="-14.840054"
       height="4.2333517"
       width="4.2333331"
       id="rect949"
       style="fill:#00ff00;fill-opacity:1;stroke-width:0.13229194"
       transform="scale(-1,1)" />
    <rect
       y="292.76666"
       x="-12.723387"
       height="4.2333694"
       width="8.4666672"
       id="rect953"
       style="fill:#483737;fill-opacity:1;stroke-width:0.13229221"
       transform="scale(-1,1)" />
    <rect
       y="292.76666"
       x="-4.2567196"
       height="4.233336"
       width="2.1166668"
       id="rect951"
       style="fill:#00ff00;fill-opacity:1;stroke-width:0.1322917"
       transform="scale(-1,1)" />
    <rect
       y="0.023384094"
       x="282.18332"
       height="4.233336"
       width="4.2333374"
       id="rect999"
       style="fill:#00ff00;fill-opacity:1;stroke-width:0.13229176"
       transform="matrix(0,1,1,0,0,0)" />
    <rect
       y="-1.9073486e-06"
       x="284.29999"
       height="4.2567225"
       width="8.4666672"
       id="rect1003"
       style="fill:#483737;fill-opacity:1;stroke-width:0.13265662"
       transform="matrix(0,1,1,0,0,0)" />
    <path
       style="opacity:1;fill:#483737;fill-opacity:1;stroke:none;stroke-width:1.13770986;stroke-linecap:round;stroke-linejoin:miter;stroke-miterlimit:11.80000019;stroke-dasharray:1.13770979, 4.55083915;stroke-dashoffset:0;stroke-opacity:1;paint-order:markers stroke fill"
       id="ellipse111"
       sodipodi:type="arc"
       sodipodi:cx="-4.2567205"
       sodipodi:cy="292.76666"
       sodipodi:rx="8.4666691"
       sodipodi:ry="8.4666805"
       sodipodi:start="3.1408761"
       sodipodi:end="4.7124995"
       d="m -12.723387,292.77273 a 8.4666691,8.4666805 0 0 1 2.478013,-5.9911 8.4666691,8.4666805 0 0 1 5.9895892,-2.48165 l -9.357e-4,8.46668 z"
       transform="scale(-1,1)" />
    <rect
       y="0.023384094"
       x="292.76666"
       height="4.233336"
       width="2.1166668"
       id="rect1001"
       style="fill:#00ff00;fill-opacity:1;stroke-width:0.13229172"
       transform="matrix(0,1,1,0,0,0)" />
    <rect
       style="fill:#00ff00;fill-opacity:1;stroke-width:0.18708868"
       id="rect4514"
       width="2.1166668"
       height="16.933334"
       x="282.18341"
       y="0.023387909"
       transform="matrix(0,1,1,0,0,0)" />
    <rect
       style="fill:#00ff00;fill-opacity:1;stroke-width:0.1322917"
       id="rect4516"
       width="2.1166668"
       height="4.2333355"
       x="292.76675"
       y="12.723387"
       transform="matrix(0,1,1,0,0,0)" />
    <rect
       style="fill:#483737;fill-opacity:1;stroke-width:0.26458335"
       id="rect4518"
       width="8.4666672"
       height="16.933334"
       x="284.30008"
       y="0.023387909"
       transform="matrix(0,1,1,0,0,0)" />
    <path
       style="fill:#008400;fill-opacity:1;stroke:#005900;stroke-width:0.93688726;stroke-linecap:round;stroke-linejoin:round;stroke-miterlimit:4;stroke-dasharray:none;stroke-opacity:1"
       d="M 5.0253906 21 L 5.0253906 33 C 25.666675 33 26.013404 33.034381 26.019531 39.207031 C 26.013428 39.306763 26.003498 39.399172 25.998047 39.5 L 20.025391 39.5 L 19.998047 39.5 C 19.998047 39.5 25.331376 60 31.998047 60 C 32.002654 60 32.007113 59.998066 32.011719 59.998047 C 32.016324 59.998066 32.020784 60 32.025391 60 C 38.691934 60 44.025391 39.5 44.025391 39.5 L 43.998047 39.5 L 38.025391 39.5 C 38.020013 39.400518 38.00992 39.309352 38.003906 39.210938 C 38.009875 33.033998 38.35198 33 58.998047 33 L 58.998047 21 C 46.795105 21 37.576724 21.008693 32.011719 25.210938 C 26.446774 21.008246 17.228765 21 5.0253906 21 z "
       transform="matrix(0.26458334,0,0,0.26458334,-8.226699e-7,280.06662)"
       id="path1506" />
  </g>
</svg>
