<?xml version="1.0" encoding="UTF-8" standalone="no"?>
<!-- Created with Inkscape (http://www.inkscape.org/) -->

<svg
   xmlns:dc="http://purl.org/dc/elements/1.1/"
   xmlns:cc="http://creativecommons.org/ns#"
   xmlns:rdf="http://www.w3.org/1999/02/22-rdf-syntax-ns#"
   xmlns:svg="http://www.w3.org/2000/svg"
   xmlns="http://www.w3.org/2000/svg"
   xmlns:sodipodi="http://sodipodi.sourceforge.net/DTD/sodipodi-0.dtd"
   xmlns:inkscape="http://www.inkscape.org/namespaces/inkscape"
   width="64"
   height="64"
   viewBox="0 0 16.933333 16.933334"
   version="1.1"
   id="svg8"
   inkscape:version="0.92.4 5da689c313, 2019-01-14"
   sodipodi:docname="ground.svg"
   inkscape:export-filename="/home/terezievahalova/dev/roboprojekt/img/tiles/png/ground.png"
   inkscape:export-xdpi="96"
   inkscape:export-ydpi="96">
  <defs
     id="defs2">
    <filter
       inkscape:collect="always"
       style="color-interpolation-filters:sRGB"
       id="filter4654"
       x="-0.1848"
       width="1.3696"
       y="-0.1848"
       height="1.3696">
      <feGaussianBlur
         inkscape:collect="always"
         stdDeviation="0.97790006"
         id="feGaussianBlur4656" />
    </filter>
  </defs>
  <sodipodi:namedview
     id="base"
     pagecolor="#ffffff"
     bordercolor="#666666"
     borderopacity="1.0"
     inkscape:pageopacity="0.0"
     inkscape:pageshadow="2"
     inkscape:zoom="11.0625"
     inkscape:cx="40.782393"
     inkscape:cy="29.633478"
     inkscape:document-units="px"
     inkscape:current-layer="layer1"
     showgrid="true"
     units="px"
     inkscape:window-width="1920"
     inkscape:window-height="1016"
     inkscape:window-x="0"
     inkscape:window-y="27"
     inkscape:window-maximized="1"
     inkscape:snap-grids="false"
     inkscape:snap-bbox="true"
     inkscape:snap-center="true">
    <inkscape:grid
       type="xygrid"
       id="grid10"
       empspacing="8"
       dotted="false" />
  </sodipodi:namedview>
  <metadata
     id="metadata5">
    <rdf:RDF>
      <cc:Work
         rdf:about="">
        <dc:format>image/svg+xml</dc:format>
        <dc:type
           rdf:resource="http://purl.org/dc/dcmitype/StillImage" />
        <dc:title />
      </cc:Work>
    </rdf:RDF>
  </metadata>
  <g
     inkscape:label="Vrstva 1"
     inkscape:groupmode="layer"
     id="layer1"
     transform="translate(0,-280.06665)">
    <rect
       style="fill:#e3e2db;stroke:#ac9d93;stroke-width:0.13229167;stroke-miterlimit:4;stroke-dasharray:none"
       id="rect3837"
       width="16.933334"
       height="16.933334"
       x="0"
       y="280.06665" />
    <path
       sodipodi:type="star"
       style="fill:#c8beb7;stroke:#ac9d93;stroke-width:0.04149047"
       id="path3782-5"
       sodipodi:sides="6"
       sodipodi:cx="1.2766157"
       sodipodi:cy="281.27917"
       sodipodi:r1="0.42717049"
       sodipodi:r2="0.36994055"
       sodipodi:arg1="1.0636978"
       sodipodi:arg2="1.5872966"
       inkscape:flatsided="true"
       inkscape:rounded="0.08"
       inkscape:randomized="0"
       d="m 1.4840681,281.65259 c -0.029873,0.0166 -0.3978031,0.0105 -0.4271124,-0.007 -0.029309,-0.0176 -0.20801615,-0.33924 -0.2074523,-0.37341 5.6385e-4,-0.0342 0.1897869,-0.34977 0.21966,-0.36637 0.029873,-0.0166 0.3978031,-0.0105 0.4271123,0.007 0.029309,0.0176 0.2080162,0.33924 0.2074524,0.37341 -5.639e-4,0.0342 -0.1897869,0.34977 -0.21966,0.36637 z"
       inkscape:transform-center-x="7.1900512"
       inkscape:transform-center-y="-7.2541422" />
    <path
       inkscape:transform-center-y="-7.2541422"
       inkscape:transform-center-x="-7.1900517"
       d="m -15.449266,281.65259 c -0.02987,0.0166 -0.397803,0.0105 -0.427112,-0.007 -0.02931,-0.0176 -0.208016,-0.33924 -0.207453,-0.37341 5.64e-4,-0.0342 0.189787,-0.34977 0.21966,-0.36637 0.02987,-0.0166 0.397803,-0.0105 0.427113,0.007 0.02931,0.0176 0.208016,0.33924 0.207452,0.37341 -5.64e-4,0.0342 -0.189787,0.34977 -0.21966,0.36637 z"
       inkscape:randomized="0"
       inkscape:rounded="0.08"
       inkscape:flatsided="true"
       sodipodi:arg2="1.5872966"
       sodipodi:arg1="1.0636978"
       sodipodi:r2="0.36994055"
       sodipodi:r1="0.42717049"
       sodipodi:cy="281.27917"
       sodipodi:cx="-15.656718"
       sodipodi:sides="6"
       id="path3154"
       style="fill:#c8beb7;stroke:#ac9d93;stroke-width:0.04149047"
       sodipodi:type="star"
       transform="scale(-1,1)" />
    <path
       transform="scale(-1)"
       sodipodi:type="star"
       style="fill:#c8beb7;stroke:#ac9d93;stroke-width:0.04149047"
       id="path3156"
       sodipodi:sides="6"
       sodipodi:cx="-15.656718"
       sodipodi:cy="-295.78745"
       sodipodi:r1="0.42717049"
       sodipodi:r2="0.36994055"
       sodipodi:arg1="1.0636978"
       sodipodi:arg2="1.5872966"
       inkscape:flatsided="true"
       inkscape:rounded="0.08"
       inkscape:randomized="0"
       d="m -15.449266,-295.41403 c -0.02987,0.0166 -0.397803,0.0105 -0.427112,-0.007 -0.02931,-0.0176 -0.208016,-0.33924 -0.207453,-0.37341 5.64e-4,-0.0342 0.189787,-0.34977 0.21966,-0.36637 0.02987,-0.0166 0.397803,-0.0105 0.427113,0.007 0.02931,0.0176 0.208016,0.33924 0.207452,0.37341 -5.64e-4,0.0342 -0.189787,0.34977 -0.21966,0.36637 z"
       inkscape:transform-center-x="-7.1900517"
       inkscape:transform-center-y="7.2541285" />
    <path
       inkscape:transform-center-y="7.2541285"
       inkscape:transform-center-x="7.1900517"
       d="m 1.4840676,-295.41403 c -0.029873,0.0166 -0.3978031,0.0105 -0.4271123,-0.007 -0.029309,-0.0176 -0.20801622,-0.33924 -0.20745237,-0.37341 5.6384e-4,-0.0342 0.18978687,-0.34977 0.21965997,-0.36637 0.029873,-0.0166 0.3978031,-0.0105 0.4271124,0.007 0.029309,0.0176 0.2080161,0.33924 0.2074523,0.37341 -5.638e-4,0.0342 -0.1897869,0.34977 -0.21966,0.36637 z"
       inkscape:randomized="0"
       inkscape:rounded="0.08"
       inkscape:flatsided="true"
       sodipodi:arg2="1.5872966"
       sodipodi:arg1="1.0636978"
       sodipodi:r2="0.36994055"
       sodipodi:r1="0.42717049"
       sodipodi:cy="-295.78745"
       sodipodi:cx="1.2766153"
       sodipodi:sides="6"
       id="path3158"
       style="fill:#c8beb7;stroke:#ac9d93;stroke-width:0.04149047"
       sodipodi:type="star"
       transform="scale(1,-1)" />
    <rect
       style="opacity:1;fill:#f7f7f7;fill-opacity:1;stroke:none;stroke-width:4;filter:url(#filter4654)"
       id="rect3160"
       width="12.700001"
       height="12.700001"
       x="2.1166668"
       y="282.18332" />
    <path
       inkscape:transform-center-y="-7.2541422"
       inkscape:transform-center-x="7.1900512"
       d="m 8.6698776,281.65259 c -0.029873,0.0166 -0.3978031,0.0105 -0.4271124,-0.007 -0.029309,-0.0176 -0.2080162,-0.33924 -0.2074523,-0.37341 5.638e-4,-0.0342 0.1897869,-0.34977 0.21966,-0.36637 0.029873,-0.0166 0.397803,-0.0105 0.4271123,0.007 0.029309,0.0176 0.2080162,0.33924 0.2074524,0.37341 -5.639e-4,0.0342 -0.1897869,0.34977 -0.21966,0.36637 z"
       inkscape:randomized="0"
       inkscape:rounded="0.08"
       inkscape:flatsided="true"
       sodipodi:arg2="1.5872966"
       sodipodi:arg1="1.0636978"
       sodipodi:r2="0.36994055"
       sodipodi:r1="0.42717049"
       sodipodi:cy="281.27917"
       sodipodi:cx="8.4624252"
       sodipodi:sides="6"
       id="path4658"
       style="fill:#c8beb7;stroke:#ac9d93;stroke-width:0.04149047"
       sodipodi:type="star" />
    <path
       transform="scale(1,-1)"
       sodipodi:type="star"
       style="fill:#c8beb7;stroke:#ac9d93;stroke-width:0.04149047"
       id="path4662"
       sodipodi:sides="6"
       sodipodi:cx="8.4624243"
       sodipodi:cy="-295.78745"
       sodipodi:r1="0.42717049"
       sodipodi:r2="0.36994055"
       sodipodi:arg1="1.0636978"
       sodipodi:arg2="1.5872966"
       inkscape:flatsided="true"
       inkscape:rounded="0.08"
       inkscape:randomized="0"
       d="m 8.6698766,-295.41403 c -0.029873,0.0166 -0.397803,0.0105 -0.4271123,-0.007 -0.029309,-0.0176 -0.2080162,-0.33924 -0.2074524,-0.37341 5.639e-4,-0.0342 0.1897869,-0.34977 0.21966,-0.36637 0.029873,-0.0166 0.3978031,-0.0105 0.4271124,0.007 0.029309,0.0176 0.2080162,0.33924 0.2074523,0.37341 -5.638e-4,0.0342 -0.1897869,0.34977 -0.21966,0.36637 z"
       inkscape:transform-center-x="7.1900517"
       inkscape:transform-center-y="7.2541285" />
    <path
       inkscape:transform-center-y="-7.2541422"
       inkscape:transform-center-x="7.1900512"
       d="m 1.4840681,288.90549 c -0.029873,0.0166 -0.3978031,0.0105 -0.4271124,-0.007 -0.029309,-0.0176 -0.20801615,-0.33925 -0.2074523,-0.37341 5.6385e-4,-0.0342 0.1897869,-0.34977 0.21966,-0.36637 0.029873,-0.0166 0.3978031,-0.0105 0.4271123,0.007 0.029309,0.0176 0.2080162,0.33924 0.2074524,0.37341 -5.639e-4,0.0342 -0.1897869,0.34977 -0.21966,0.36637 z"
       inkscape:randomized="0"
       inkscape:rounded="0.08"
       inkscape:flatsided="true"
       sodipodi:arg2="1.5872966"
       sodipodi:arg1="1.0636978"
       sodipodi:r2="0.36994055"
       sodipodi:r1="0.42717049"
       sodipodi:cy="288.53208"
       sodipodi:cx="1.2766157"
       sodipodi:sides="6"
       id="path4664"
       style="fill:#c8beb7;stroke:#ac9d93;stroke-width:0.04149047"
       sodipodi:type="star" />
    <path
       transform="scale(-1,1)"
       sodipodi:type="star"
       style="fill:#c8beb7;stroke:#ac9d93;stroke-width:0.04149047"
       id="path4666"
       sodipodi:sides="6"
       sodipodi:cx="-15.656718"
       sodipodi:cy="288.53208"
       sodipodi:r1="0.42717049"
       sodipodi:r2="0.36994055"
       sodipodi:arg1="1.0636978"
       sodipodi:arg2="1.5872966"
       inkscape:flatsided="true"
       inkscape:rounded="0.08"
       inkscape:randomized="0"
       d="m -15.449266,288.90549 c -0.02987,0.0166 -0.397803,0.0105 -0.427112,-0.007 -0.02931,-0.0176 -0.208016,-0.33925 -0.207453,-0.37341 5.64e-4,-0.0342 0.189787,-0.34977 0.21966,-0.36637 0.02987,-0.0166 0.397803,-0.0105 0.427113,0.007 0.02931,0.0176 0.208016,0.33924 0.207452,0.37341 -5.64e-4,0.0342 -0.189787,0.34977 -0.21966,0.36637 z"
       inkscape:transform-center-x="-7.1900517"
       inkscape:transform-center-y="-7.2541422" />
  </g>
</svg>
