<?xml version="1.0" encoding="UTF-8" standalone="no"?>
<!-- Created with Inkscape (http://www.inkscape.org/) -->

<svg
   xmlns:dc="http://purl.org/dc/elements/1.1/"
   xmlns:cc="http://creativecommons.org/ns#"
   xmlns:rdf="http://www.w3.org/1999/02/22-rdf-syntax-ns#"
   xmlns:svg="http://www.w3.org/2000/svg"
   xmlns="http://www.w3.org/2000/svg"
   xmlns:xlink="http://www.w3.org/1999/xlink"
   xmlns:sodipodi="http://sodipodi.sourceforge.net/DTD/sodipodi-0.dtd"
   xmlns:inkscape="http://www.inkscape.org/namespaces/inkscape"
   width="64"
   height="64"
   viewBox="0 0 16.933333 16.933334"
   version="1.1"
   id="svg8"
   inkscape:version="0.92.3 (2405546, 2018-03-11)"
   sodipodi:docname="robot_Hanka_front.svg">
  <defs
     id="defs2">
    <linearGradient
       inkscape:collect="always"
       id="linearGradient2295">
      <stop
         style="stop-color:#ff00eb;stop-opacity:0.74117649"
         offset="0"
         id="stop2291" />
      <stop
         style="stop-color:#281528;stop-opacity:1"
         offset="1"
         id="stop2293" />
    </linearGradient>
    <linearGradient
       inkscape:collect="always"
       id="linearGradient979">
      <stop
         style="stop-color:#f140ff;stop-opacity:1;"
         offset="0"
         id="stop975" />
      <stop
         style="stop-color:#f140ff;stop-opacity:0;"
         offset="1"
         id="stop977" />
    </linearGradient>
    <linearGradient
       inkscape:collect="always"
       id="linearGradient971">
      <stop
         style="stop-color:#f540ff;stop-opacity:1;"
         offset="0"
         id="stop967" />
      <stop
         style="stop-color:#f540ff;stop-opacity:0;"
         offset="1"
         id="stop969" />
    </linearGradient>
    <linearGradient
       inkscape:collect="always"
       id="950">
      <stop
         style="stop-color:#ce00ce;stop-opacity:1;"
         offset="0"
         id="stop870" />
      <stop
         style="stop-color:#ce00ce;stop-opacity:0;"
         offset="1"
         id="stop872" />
    </linearGradient>
    <inkscape:path-effect
       effect="bspline"
       id="path-effect848"
       is_visible="true"
       weight="33.333333"
       steps="2"
       helper_size="0"
       apply_no_weight="true"
       apply_with_weight="true"
       only_selected="false" />
    <linearGradient
       inkscape:collect="always"
       xlink:href="#950"
       id="linearGradient876"
       x1="6.8565564"
       y1="281.23842"
       x2="10.076777"
       y2="281.23842"
       gradientUnits="userSpaceOnUse" />
    <radialGradient
       inkscape:collect="always"
       xlink:href="#950"
       id="radialGradient930"
       cx="31.993231"
       cy="39.131748"
       fx="31.993231"
       fy="39.131748"
       r="23.832516"
       gradientTransform="matrix(1,0,0,0.26570405,0,28.734285)"
       gradientUnits="userSpaceOnUse" />
    <linearGradient
       inkscape:collect="always"
       xlink:href="#linearGradient971"
       id="linearGradient973"
       x1="48.600646"
       y1="36.146799"
       x2="55.853466"
       y2="36.146799"
       gradientUnits="userSpaceOnUse" />
    <linearGradient
       inkscape:collect="always"
       xlink:href="#linearGradient979"
       id="linearGradient981"
       x1="8.160714"
       y1="35.975116"
       x2="14.852271"
       y2="35.975116"
       gradientUnits="userSpaceOnUse" />
    <radialGradient
       inkscape:collect="always"
       xlink:href="#linearGradient2295"
       id="radialGradient2297"
       cx="8.4666916"
       cy="288.73176"
       fx="8.4666916"
       fy="288.73176"
       r="6.5738272"
       gradientTransform="matrix(1,0,0,1.0430893,0,-12.441251)"
       gradientUnits="userSpaceOnUse" />
  </defs>
  <sodipodi:namedview
     id="base"
     pagecolor="#ffffff"
     bordercolor="#666666"
     borderopacity="1.0"
     inkscape:pageopacity="0.0"
     inkscape:pageshadow="2"
     inkscape:zoom="8.5652429"
     inkscape:cx="14.957742"
     inkscape:cy="31.636212"
     inkscape:document-units="px"
     inkscape:current-layer="layer1"
     showgrid="true"
     units="px"
     inkscape:window-width="1366"
     inkscape:window-height="746"
     inkscape:window-x="-8"
     inkscape:window-y="-8"
     inkscape:window-maximized="1"
     showguides="true">
    <inkscape:grid
       type="xygrid"
       id="grid10"
       empspacing="8" />
    <inkscape:grid
       type="xygrid"
       id="grid3715"
       empspacing="8"
       enabled="false" />
  </sodipodi:namedview>
  <metadata
     id="metadata5">
    <rdf:RDF>
      <cc:Work
         rdf:about="">
        <dc:format>image/svg+xml</dc:format>
        <dc:type
           rdf:resource="http://purl.org/dc/dcmitype/StillImage" />
        <dc:title></dc:title>
      </cc:Work>
    </rdf:RDF>
  </metadata>
  <g
     inkscape:label="Vrstva 1"
     inkscape:groupmode="layer"
     id="layer1"
     transform="translate(0,-280.06666)">
    <flowRoot
       xml:space="preserve"
       id="flowRoot22"
       style="fill:black;fill-opacity:1;stroke:none;font-family:sans-serif;font-style:normal;font-weight:normal;font-size:5.33333333px;line-height:1.25;letter-spacing:0px;word-spacing:0px"><flowRegion
         id="flowRegion24"><rect
           id="rect26"
           width="13"
           height="12"
           x="25"
           y="18" /></flowRegion><flowPara
         id="flowPara28" /></flowRoot>    <flowRoot
       xml:space="preserve"
       id="flowRoot38"
       style="fill:black;fill-opacity:1;stroke:none;font-family:sans-serif;font-style:normal;font-weight:normal;font-size:5.33333333px;line-height:1.25;letter-spacing:0px;word-spacing:0px"><flowRegion
         id="flowRegion40"><rect
           id="rect42"
           width="8"
           height="16"
           x="24"
           y="16" /></flowRegion><flowPara
         id="flowPara44" /></flowRoot>    <path
       style="fill:url(#radialGradient2297);stroke:#000000;stroke-width:0.26458335px;stroke-linecap:butt;stroke-linejoin:miter;stroke-opacity:1;fill-opacity:1"
       d="m 3.7043162,294.00123 c 2.2931782,1.94043 7.2320598,1.94043 9.5249718,3e-5 2.292913,-1.94039 1.940136,-5.82094 0.705552,-8.3343 -1.234584,-2.51336 -3.351254,-3.65989 -5.4679688,-3.66 -2.1167149,-1.1e-4 -4.2332225,1.14633 -5.4681161,3.66011 -1.2348936,2.51378 -1.5876172,6.39374 0.7055611,8.33416 z"
       id="path846"
       inkscape:connector-curvature="0"
       inkscape:path-effect="#path-effect848"
       inkscape:original-d="m 1.0583333,295.94166 c 4.9391611,-2.6e-4 9.8780427,-2.6e-4 14.8166667,0 -0.352513,-3.88082 -0.70529,-7.76137 -1.058333,-11.64167 -2.116242,-1.1467 -4.232911,-2.29323 -6.3500003,-3.43958 -2.1165603,1.14635 -4.2330681,2.29279 -6.35,3.43958 -0.3525667,3.88088 -0.7052904,7.76084 -1.0583334,11.64167 z"
       sodipodi:nodetypes="cccccc" />
    <path
       style="fill:url(#linearGradient876);stroke:#000000;stroke-width:0.26458335px;stroke-linecap:butt;stroke-linejoin:miter;stroke-opacity:1;fill-opacity:1"
       d="m 7.1437502,282.18333 c 0.7937499,-0.26459 1.8520832,-0.26459 2.6458334,0 0.7197454,0.23992 -1.3229167,-1.85209 -1.3229167,-1.85209 0,0 -2.042662,2.09201 -1.3229167,1.85209 z"
       id="path850"
       inkscape:connector-curvature="0"
       sodipodi:nodetypes="sscs" />
    <ellipse
       style="fill:#422c2c;fill-opacity:1;stroke:#020200;stroke-width:0.25081512;stroke-linejoin:round;stroke-opacity:1"
       id="path880"
       cx="3.0749454"
       cy="293.74979"
       rx="1.6581801"
       ry="1.8589674" />
    <ellipse
       style="fill:#ffaaaa;fill-opacity:1;stroke:#020200;stroke-width:0.25081512;stroke-linejoin:round;stroke-opacity:1"
       id="path880-3"
       cx="13.930923"
       cy="293.87335"
       rx="1.6581801"
       ry="1.8589674" />
    <path
       style="fill:none;stroke:#000000;stroke-width:0.26458335px;stroke-linecap:butt;stroke-linejoin:miter;stroke-opacity:1"
       d="m 2.1166667,288.53333 c 0,0 4.2333334,1.85208 6.35,1.85208 2.1166663,0 6.3500003,-1.85208 6.3500003,-1.85208"
       id="path905"
       inkscape:connector-curvature="0"
       sodipodi:nodetypes="czc" />
    <path
       style="fill:none;stroke:#000000;stroke-width:0.26458335px;stroke-linecap:butt;stroke-linejoin:miter;stroke-opacity:1"
       d="m 2.1166671,290.38541 c 0,0 4.2333334,1.85208 6.35,1.85208 2.1166659,0 6.3499999,-1.85208 6.3499999,-1.85208"
       id="path905-3"
       inkscape:connector-curvature="0"
       sodipodi:nodetypes="czc" />
    <path
       style="fill:#7c00ce;fill-opacity:1;stroke:url(#radialGradient930);stroke-width:0.11675092;stroke-linejoin:round;stroke-opacity:1;fill-rule:evenodd"
       d="m 29.059129,45.187559 c -4.519651,-0.691261 -11.4072,-2.836023 -18.826086,-5.862387 l -2.0139535,-0.821546 0.00301,-1.648392 c 0.00264,-1.445755 0.1640291,-3.897493 0.2630749,-3.996539 0.019335,-0.01933 0.7423089,0.254936 1.6066096,0.609491 3.835718,1.573491 8.839363,3.338063 12.205876,4.30449 6.04605,1.735645 9.435411,2.094789 13.380641,1.417841 3.007791,-0.516096 6.669361,-1.509894 10.856134,-2.946495 1.950464,-0.66926 6.668965,-2.455965 8.107615,-3.070025 0.720338,-0.307463 0.813771,-0.323092 0.909746,-0.152182 0.05883,0.10476 0.131397,1.376336 0.161265,2.825726 l 0.05431,2.635253 -0.336392,0.154918 c -2.246921,1.03477 -9.064754,3.550637 -12.394006,4.573546 -6.625222,2.035592 -10.244451,2.547308 -13.977844,1.976301 z"
       id="path922"
       inkscape:connector-curvature="0"
       transform="matrix(0.26458334,0,0,0.26458334,0,280.06666)" />
    <path
       style="fill:url(#linearGradient981);fill-opacity:1;fill-rule:evenodd;stroke:#020200;stroke-width:0.11675092;stroke-linejoin:round;stroke-opacity:1"
       d="m 8.9487828,38.784069 -0.7296933,-0.286644 0.00301,-1.645292 c 0.00258,-1.410477 0.1635403,-3.894866 0.2583931,-3.9883 0.03496,-0.03444 5.7316514,2.216645 6.1330674,2.42352 0.342486,0.176505 0.267255,0.236488 -0.823582,0.656668 -1.896158,0.73038 -3.370803,1.887692 -3.537498,2.776252 -0.08884,0.473536 -0.241615,0.481012 -1.3036994,0.0638 z"
       id="path955"
       inkscape:connector-curvature="0"
       transform="matrix(0.26458334,0,0,0.26458334,0,280.06666)" />
    <path
       style="fill:url(#linearGradient973);fill-opacity:1;fill-rule:evenodd;stroke:#020200;stroke-width:0.11675092;stroke-linejoin:round;stroke-opacity:1"
       d="m 53.109819,39.117997 c 0,-0.200475 0.06241,-0.351771 0.145939,-0.353804 0.08027,-0.002 0.05289,-0.05772 -0.06083,-0.123926 -0.113724,-0.06621 -0.176296,-0.169685 -0.139049,-0.229952 0.03725,-0.06027 0.01208,-0.109575 -0.05592,-0.109575 -0.068,0 -0.123641,-0.05811 -0.123641,-0.129136 0,-0.07102 -0.131845,-0.232845 -0.29299,-0.359601 -0.161144,-0.126757 -0.264071,-0.277257 -0.228727,-0.334445 0.03534,-0.05719 -0.06923,-0.137485 -0.232389,-0.178435 -0.163159,-0.04095 -0.296652,-0.121297 -0.296652,-0.178549 0,-0.05725 -0.07443,-0.104094 -0.165397,-0.104094 -0.09097,0 -0.18291,-0.0394 -0.204314,-0.08756 -0.02141,-0.04816 -0.314741,-0.214754 -0.65186,-0.37021 -0.337118,-0.155456 -0.612942,-0.326204 -0.612942,-0.379441 0,-0.05324 -0.128244,-0.09679 -0.284987,-0.09679 -0.156743,0 -0.313776,-0.04658 -0.348963,-0.103516 -0.03519,-0.05693 -0.24844,-0.138121 -0.473894,-0.180417 -0.76902,-0.144269 -0.826869,-0.112412 2.744562,-1.511432 1.379367,-0.540333 2.764931,-1.094272 3.079031,-1.230976 0.3141,-0.136705 0.588828,-0.230816 0.610507,-0.209137 0.0943,0.0943 0.275877,2.83643 0.27679,4.180111 l 9.98e-4,1.470012 -0.843651,0.339627 c -0.464008,0.186795 -0.857088,0.328775 -0.873512,0.315511 -0.01642,-0.01326 -0.213011,0.05241 -0.43686,0.145939 -0.535371,0.223692 -0.531248,0.22509 -0.531248,-0.180198 z"
       id="path957"
       inkscape:connector-curvature="0"
       transform="matrix(0.26458334,0,0,0.26458334,0,280.06666)" />
    <ellipse
       style="fill:#422c2c;fill-opacity:1;stroke:#020200;stroke-width:0.25081512;stroke-linejoin:round;stroke-opacity:1"
       id="path880-31"
       cx="13.951059"
       cy="293.88141"
       rx="1.6581801"
       ry="1.8589674" />
    <circle
       style="opacity:1;fill:#ff0000;fill-opacity:1;fill-rule:evenodd;stroke:#171717;stroke-width:0.13229167;stroke-linejoin:round;stroke-miterlimit:4;stroke-dasharray:none;stroke-opacity:1"
       id="path1513"
       cx="3.0876608"
       cy="293.69333"
       r="1.0583334" />
    <circle
       style="opacity:1;fill:#ff0000;fill-opacity:1;fill-rule:evenodd;stroke:#171717;stroke-width:0.13229167;stroke-linejoin:round;stroke-miterlimit:4;stroke-dasharray:none;stroke-opacity:1"
       id="path1513-1"
       cx="13.899301"
       cy="293.83032"
       r="1.0583334" />
    <path
       style="fill:#11040e;fill-opacity:0.99681528;stroke:#000000;stroke-width:0.26458335px;stroke-linecap:butt;stroke-linejoin:miter;stroke-opacity:1"
       d="m 7.4083335,286.68125 -2.1166668,-2.11667 v 1.5875 z"
       id="path1618"
       inkscape:connector-curvature="0" />
    <path
       style="fill:#11040e;fill-opacity:0.99681528;stroke:#000000;stroke-width:0.26458335px;stroke-linecap:butt;stroke-linejoin:miter;stroke-opacity:1"
       d="m 9.5250001,286.68125 2.1166669,-2.11667 v 1.5875 z"
       id="path1618-5"
       inkscape:connector-curvature="0" />
    <path
       style="fill:#ff0000;fill-opacity:1;stroke:#000000;stroke-width:0.26458335px;stroke-linecap:butt;stroke-linejoin:miter;stroke-opacity:1"
       d="m 7.9375001,287.73958 -2.116667,-1.05833 v 1.05833 z"
       id="path1635-2"
       inkscape:connector-curvature="0" />
    <path
       style="fill:#ff0000;fill-opacity:1;stroke:#000000;stroke-width:0.26458335px;stroke-linecap:butt;stroke-linejoin:miter;stroke-opacity:1"
       d="M 8.9958331,287.73957 11.1125,286.68124 v 1.05833 z"
       id="path1635-2-5"
       inkscape:connector-curvature="0" />
    <circle
       style="opacity:1;fill:#1f0b1d;fill-opacity:1;fill-rule:evenodd;stroke:#250707;stroke-width:0.13229167;stroke-linejoin:round;stroke-miterlimit:4;stroke-dasharray:none;stroke-opacity:0.66666667"
       id="path2355"
       cx="10.280431"
       cy="287.39105"
       r="0.13229167" />
    <circle
       style="opacity:1;fill:#1f0b1d;fill-opacity:1;fill-rule:evenodd;stroke:#250707;stroke-width:0.13229167;stroke-linejoin:round;stroke-miterlimit:4;stroke-dasharray:none;stroke-opacity:0.66666667"
       id="path2355-7"
       cx="6.5601592"
       cy="287.39511"
       r="0.13229167"
       inkscape:transform-center-x="5.3749208"
       inkscape:transform-center-y="-0.1235614" />
  </g>
</svg>
