<?xml version="1.0" encoding="UTF-8" standalone="no"?>
<!-- Created with Inkscape (http://www.inkscape.org/) -->

<svg
   xmlns:dc="http://purl.org/dc/elements/1.1/"
   xmlns:cc="http://creativecommons.org/ns#"
   xmlns:rdf="http://www.w3.org/1999/02/22-rdf-syntax-ns#"
   xmlns:svg="http://www.w3.org/2000/svg"
   xmlns="http://www.w3.org/2000/svg"
   xmlns:sodipodi="http://sodipodi.sourceforge.net/DTD/sodipodi-0.dtd"
   xmlns:inkscape="http://www.inkscape.org/namespaces/inkscape"
   width="64"
   height="64"
   viewBox="0 0 64.000001 64.000001"
   id="svg2"
   version="1.1"
   inkscape:version="0.91 r13725"
   sodipodi:docname="repair_2.svg"
   inkscape:export-filename="/home/zuzik/pyladies/RoboProjekt/repair.svg.png"
   inkscape:export-xdpi="90"
   inkscape:export-ydpi="90">
  <defs
     id="defs4" />
  <sodipodi:namedview
     id="base"
     pagecolor="#ffffff"
     bordercolor="#666666"
     borderopacity="1.0"
     inkscape:pageopacity="0.0"
     inkscape:pageshadow="2"
     inkscape:zoom="6.2578125"
     inkscape:cx="30.677715"
     inkscape:cy="30.930972"
     inkscape:document-units="px"
     inkscape:current-layer="layer1"
     showgrid="true"
     units="px"
     inkscape:window-width="1920"
     inkscape:window-height="1027"
     inkscape:window-x="0"
     inkscape:window-y="0"
     inkscape:window-maximized="1">
    <inkscape:grid
       type="xygrid"
       id="grid3336"
       empspacing="8"
       dotted="false" />
  </sodipodi:namedview>
  <metadata
     id="metadata7">
    <rdf:RDF>
      <cc:Work
         rdf:about="">
        <dc:format>image/svg+xml</dc:format>
        <dc:type
           rdf:resource="http://purl.org/dc/dcmitype/StillImage" />
        <dc:title></dc:title>
      </cc:Work>
    </rdf:RDF>
  </metadata>
  <g
     inkscape:label="Layer 1"
     inkscape:groupmode="layer"
     id="layer1"
     transform="translate(0,-988.36216)">
    <path
       style="fill:#e3e2db;fill-rule:evenodd;stroke:#000000;stroke-width:1px;stroke-linecap:butt;stroke-linejoin:miter;stroke-opacity:1"
       d="m 0,988.36216 0,64.00004 64,0 0,-64.00004 z"
       id="path3363"
       inkscape:connector-curvature="0" />
    <path
       style="fill:#916f6f;fill-rule:evenodd;stroke:#000000;stroke-width:1px;stroke-linecap:butt;stroke-linejoin:miter;stroke-opacity:1"
       d="m 8,1036.3622 32.958801,-29.1236 c 0,0 -1.55322,-2.948 -1.76126,-6.3251 -0.189034,-3.06865 0.871872,-6.54732 2.560262,-7.42774 7.680409,-4.00498 14.881398,-2.8864 14.881398,-2.8864 -6.309496,6.5895 -13.376656,9.56604 -8.479401,13.60304 4.897256,4.037 8.437581,-4.0013 14.242198,-9.11864 0,16.00004 -6.401213,17.27684 -6.401998,17.27844 l -2.471075,0.5915 -2.592676,-0.3758 -5.333253,-1.4941 L 16,1044.3622 Z"
       id="path3342"
       inkscape:connector-curvature="0"
       sodipodi:nodetypes="ccssczccccccc" />
    <path
       style="fill:#916f6f;fill-rule:evenodd;stroke:#000000;stroke-width:1.03028786px;stroke-linecap:butt;stroke-linejoin:miter;stroke-opacity:1"
       d="m 49.677581,1045.47 0,0 7.904107,-8.5949 -34.173238,-34.5397 0.504302,-3.89634 5.210198,-4.53889 -6.976536,-1.20178 -4.08527,1.20178 c -1.14034,2.04131 -2.696743,3.75518 -3.917384,5.69217 -1.768807,2.80686 -3.104326,5.23496 -5.100421,7.15036 -1.9960945,1.9154 -4.7155134,2.5397 -6.7904118,4.3475 l 7.9041088,8.595 2.088218,-6.978 2.220956,-4.6155 2.256937,-1.9823 2.909184,-0.3889 30.04525,39.7495 0,0"
       id="path3462"
       inkscape:connector-curvature="0"
       sodipodi:nodetypes="ccccccccszcccccccc" />
  </g>
</svg>
